<?xml version="1.0" encoding="UTF-8"?>
<svg xmlns="http://www.w3.org/2000/svg" xmlns:xlink="http://www.w3.org/1999/xlink" width="30px" height="30px" viewBox="0 0 30 30" version="1.1">
<g id="surface1">
<path style=" stroke:none;fill-rule:nonzero;fill:rgb(19.607843%,42.352941%,89.803922%);fill-opacity:1;" d="M 14.898438 0.851562 C 14.945312 0.703125 15.007812 0.566406 15.085938 0.433594 L 4.015625 5.882812 C 2.496094 5.527344 1.558594 4.015625 1.917969 2.511719 C 2.28125 1.007812 3.800781 0.0742188 5.320312 0.433594 L 2.816406 11.316406 C 2.816406 10.253906 3.6875 9.394531 4.757812 9.394531 C 5.828125 9.394531 6.695312 10.253906 6.695312 11.316406 C 6.695312 12.378906 5.828125 13.242188 4.757812 13.242188 L 11.777344 21.96875 C 9.347656 23.890625 5.804688 23.496094 3.867188 21.085938 C 1.929688 18.675781 2.328125 15.164062 4.757812 13.242188 L 16.011719 13.238281 C 16.015625 16.320312 13.496094 18.820312 10.386719 18.820312 C 7.277344 18.820312 4.757812 16.324219 4.757812 13.242188 L 11.773438 4.511719 C 14.203125 6.433594 14.601562 9.945312 12.664062 12.355469 C 10.726562 14.765625 7.1875 15.164062 4.757812 13.242188 L 27.03125 7.1875 C 28.714844 7.542969 29.789062 9.1875 29.429688 10.859375 C 29.070312 12.53125 27.410156 13.597656 25.726562 13.242188 L 15.839844 1.039062 C 19.238281 1.089844 21.949219 3.863281 21.898438 7.234375 C 21.84375 10.601562 19.046875 13.292969 15.652344 13.242188 Z M 14.898438 0.851562 "/>
<path style="fill-rule:nonzero;fill:rgb(100%,100%,100%);fill-opacity:1;stroke-width:0.25;stroke-linecap:butt;stroke-linejoin:miter;stroke:rgb(100%,100%,100%);stroke-opacity:1;stroke-miterlimit:4;" d="M 361.423 99.304588 C 353.328631 99.304588 346.740191 106.551872 346.740191 115.587447 C 346.740191 115.681568 346.834311 115.869809 346.834311 115.963929 C 346.834311 117.187497 346.740191 118.693426 346.740191 119.728752 C 346.928432 124.905384 348.057879 128.858448 348.810843 133.658597 C 350.034411 143.823619 351.069737 152.294471 350.410893 160.106478 C 349.752049 163.118336 347.587276 165.847833 345.704864 167.730245 L 345.328382 173.942202 C 318.598139 118.693426 320.104068 53.938472 349.375567 0.00738359 C 311.444976 8.666476 278.691016 28.149435 253.843185 54.597316 C 248.195951 184.577827 142.027945 287.451613 11.953313 289.145784 C -118.121319 290.745833 -226.830581 190.601544 -235.677915 60.809274 C -244.619369 -68.982996 -150.592917 -183.151251 -21.553611 -199.245869 C 107.485694 -215.434608 226.73646 -127.996596 250.078362 0.00738359 C 247.442986 0.383866 244.80761 1.13683 241.41927 -0.839702 C 234.830829 -5.263368 228.901233 -11.287085 221.653949 -18.62849 C 218.359729 -22.205072 215.912594 -25.499292 212.053651 -28.887632 C 211.112445 -29.640597 209.794757 -30.675923 208.759431 -31.428888 C 205.747572 -33.876023 202.07687 -35.193711 198.594409 -35.287831 C 194.076621 -35.476072 189.747075 -33.687782 186.923458 -30.1112 C 181.935067 -23.805121 183.535117 -14.204823 190.50004 -8.557589 C 190.59416 -8.557589 190.688281 -8.463468 190.782401 -8.463468 C 191.723607 -7.616383 192.853054 -6.675177 193.79426 -6.016333 C 197.935565 -2.910354 201.794508 -1.310304 205.935814 1.13683 C 214.689027 6.501703 221.936311 11.019491 227.677666 16.384363 C 229.93656 18.737378 230.313042 22.972803 230.595404 24.855215 L 235.301432 28.99652 C 210.171239 66.73887 198.594409 113.422674 205.465211 160.953563 L 199.347373 162.741854 C 197.653203 164.812507 195.394309 168.106727 193.041295 169.047933 C 185.511649 171.400947 177.040798 172.342153 166.781655 173.377479 C 161.981506 173.753961 157.840201 173.56572 152.75769 174.506926 C 151.628243 174.695167 150.122314 175.16577 148.898746 175.448132 L 148.710505 175.448132 C 148.710505 175.448132 148.616385 175.448132 148.522264 175.542252 C 139.957292 177.612905 134.404178 185.519033 136.192469 193.33104 C 137.98076 201.143048 146.357491 205.849077 155.016584 203.966665 C 155.110704 203.966665 155.204825 203.966665 155.204825 203.966665 C 155.393066 203.966665 155.393066 203.872545 155.487186 203.872545 C 156.710754 203.590183 158.216683 203.307821 159.34613 203.025459 C 164.33452 201.707771 167.911102 199.731239 172.42889 198.037069 C 182.123309 194.554608 190.123557 191.63687 197.935565 190.507423 C 201.229785 190.225061 204.618126 192.483955 206.312296 193.425161 L 212.712495 192.389835 C 227.395304 237.850071 258.172732 274.651215 297.044528 297.710756 L 294.409152 304.016834 C 295.350358 306.55809 296.385684 309.85231 295.72684 312.299445 C 292.903223 319.73497 288.008953 327.452857 282.455839 336.111949 C 279.820463 340.159134 277.090967 343.265113 274.643832 347.782901 C 274.079108 348.912347 273.326144 350.606518 272.76142 351.735965 C 268.996597 359.830334 271.726094 369.05415 278.973378 372.536611 C 286.220662 376.019072 295.256237 372.34837 299.115181 364.254001 C 299.209301 364.254001 299.209301 364.254001 299.209301 364.254001 C 299.774025 363.030433 300.526989 361.618625 300.997592 360.489178 C 303.068245 355.783149 303.727089 351.641844 305.233018 347.124057 C 309.091961 337.335517 311.256735 327.170495 316.527487 320.864417 C 318.033416 319.076126 320.38643 318.417282 322.833565 317.758438 L 326.127785 311.734721 C 360.105312 324.817481 398.130023 328.299942 436.060614 319.640849 C 374.50576 384.019321 276.526243 397.102081 200.3827 350.888879 C 124.239156 304.769799 90.449871 211.872793 119.062525 127.54076 C 147.769299 43.208727 231.160127 -9.781156 319.633466 0.00738359 C 320.574671 1.607433 322.362962 4.807533 322.739445 5.654618 C 325.2807 6.407583 328.010197 6.878185 330.26909 10.172405 C 334.222154 16.949087 336.951651 25.043456 340.245871 34.737875 C 341.7518 39.349783 342.504765 43.396968 344.575417 48.197117 C 345.04602 49.232443 345.798985 50.738372 346.363708 51.867819 C 350.222652 59.962189 359.258227 63.727011 366.599632 60.15043 C 373.752795 56.667968 376.576412 47.444152 372.811589 39.443904 C 372.246866 38.220336 371.493901 36.526166 370.835057 35.49084 C 368.482043 30.878932 365.752546 27.772953 363.02305 23.819889 C 357.469936 15.160796 352.858028 7.913512 350.034411 0.572107 C 348.904964 -3.192716 350.222652 -5.54573 351.163858 -7.992865 C 350.599134 -8.651709 349.469687 -12.228291 348.716723 -13.922461 C 389.188569 -37.829087 419.024791 -75.947919 433.048756 -119.996347 C 434.931167 -119.713985 438.225388 -119.149262 439.354834 -118.8669 C 441.519608 -120.372829 443.49614 -122.255241 447.543324 -121.972879 C 455.355332 -120.843432 463.35558 -117.925694 472.955879 -114.443233 C 477.473666 -112.749063 481.144369 -110.67841 486.132759 -109.360722 C 487.168085 -109.07836 488.674015 -108.795999 489.897582 -108.607758 C 489.991703 -108.513637 490.085823 -108.513637 490.179944 -108.513637 C 490.274064 -108.419516 490.368185 -108.419516 490.368185 -108.419516 C 499.121398 -106.537105 507.498129 -111.337254 509.28642 -119.149262 C 511.074711 -126.961269 505.521597 -134.867397 496.862504 -136.93805 C 495.638937 -137.220412 493.850646 -137.691015 492.627079 -137.973376 C 487.544568 -138.914582 483.403263 -138.63222 478.603113 -139.102823 C 468.438091 -140.138149 459.96724 -140.985235 452.437594 -143.338249 C 449.331615 -144.561816 447.166842 -148.232519 446.131516 -149.738448 L 440.20192 -151.432618 C 443.213778 -173.550953 442.460813 -196.610493 437.095941 -219.764154 C 431.731068 -243.011936 422.319011 -264.283185 409.706854 -283.1073 C 411.212783 -284.424988 414.130521 -286.966243 414.883485 -287.719208 C 415.165847 -290.354584 414.977606 -293.08408 417.612982 -296.001818 C 423.448458 -301.366691 430.695742 -305.884478 439.448955 -311.249351 C 443.59026 -313.696486 447.355083 -315.296536 451.590509 -318.402515 C 452.531715 -319.061359 453.755282 -320.190805 454.790608 -320.94377 C 461.755531 -326.591004 463.449701 -336.191303 458.36719 -342.497381 C 453.3788 -348.80346 443.59026 -349.462304 436.531217 -343.815069 C 435.590011 -343.062105 434.178203 -342.026778 433.331118 -341.273814 C 429.378054 -337.885473 426.930919 -334.497133 423.636699 -331.014671 C 416.483535 -323.673267 410.459818 -317.555429 403.965499 -313.225883 C 401.141882 -311.531713 396.906456 -312.096436 395.024045 -312.190557 L 389.470931 -308.237493 C 357.752298 -341.556176 314.550955 -362.733304 268.055392 -366.87461 C 267.961271 -368.851142 267.77303 -372.333603 267.77303 -373.46305 C 265.890618 -375.251341 263.537604 -376.85139 262.972881 -380.710334 C 262.314037 -388.616462 263.349363 -397.087314 264.667051 -407.252335 C 265.325895 -412.052485 266.455342 -416.005549 266.643583 -421.18218 C 266.643583 -422.405748 266.643583 -424.099918 266.549463 -425.323485 C 266.549463 -434.35906 260.055143 -441.606345 251.960774 -441.606345 Z M 343.069488 212.719878 L 338.739942 289.428145 L 338.45758 289.616386 C 338.175218 296.487188 332.527984 301.946182 325.563062 301.946182 C 322.739445 301.946182 320.104068 301.004976 317.939295 299.499047 L 317.845175 299.593167 L 254.972632 254.980016 C 274.267349 235.96766 299.02106 221.943695 327.539594 215.449375 C 294.220911 288.48694 210.453601 323.782154 134.968902 296.487188 C 59.390082 269.286343 17.506427 188.625012 38.495314 111.16378 C 59.578323 33.702549 136.474831 -14.675426 215.441991 0.00738359 Z M 379.776512 212.719878 C 413.001074 216.861184 443.778501 231.920475 467.402765 254.980016 L 404.906705 299.310805 L 404.624343 299.216685 C 399.071229 303.26387 391.259222 302.228543 386.929675 296.863671 C 305.044777 298.934323 236.901482 234.085248 234.830829 152.20035 C 232.760177 70.221331 297.515131 2.078036 379.49415 0.00738359 L 379.400029 0.00738359 Z M 232.101333 283.59267 L 289.609003 334.982503 L 289.514882 335.264864 C 294.691514 339.782652 295.444478 347.594659 291.114932 353.053653 C 193.606018 351.830085 115.580064 271.827598 116.803631 174.318685 C 118.027198 76.809771 198.029685 -1.216184 295.538599 0.00738359 L 295.444478 0.289745 L 221.84219 21.466874 C 218.077367 -12.793014 226.171737 -46.111697 243.20756 -73.877266 Z M 490.274064 283.68679 C 498.839036 297.522515 505.239235 312.958289 509.098179 329.711751 C 512.957122 346.276971 513.898328 362.748072 512.298278 378.748569 L 438.319508 357.383199 L 438.225388 357.100837 C 431.636947 355.312546 427.589763 348.535865 429.095692 341.759184 C 334.692757 365.854051 238.689773 308.911104 214.500786 214.508169 C 190.405919 120.199355 247.442986 24.10225 341.7518 0.00738359 L 341.7518 -0.180858 L 398.882988 -51.288329 Z M 349.657928 338.935567 L 373.188072 338.935567 L 387.77676 357.289078 L 382.506008 380.066257 L 361.423 390.231279 L 340.245871 380.066257 L 334.975119 357.194958 Z M 425.048507 401.525748 C 426.083834 401.431627 427.025039 401.525748 428.060366 401.713989 L 428.154486 401.619868 L 504.29803 414.420266 C 493.191802 445.762417 471.826432 472.869142 443.307898 491.034412 L 413.754039 419.691018 L 413.848159 419.502777 C 411.118663 413.196699 413.848159 405.855294 420.154238 402.843436 C 421.754287 401.996351 423.354337 401.619868 425.048507 401.525748 Z M 297.138649 401.808109 C 302.974124 401.90223 308.150756 405.949415 309.562564 411.879011 C 310.127288 414.608507 309.844926 417.338004 308.8096 419.785139 L 308.997841 420.067501 L 279.820463 490.752051 C 252.431377 473.245624 230.689524 446.985984 219.018573 414.702628 L 294.503273 401.90223 L 294.597393 402.090471 C 295.444478 401.90223 296.291564 401.808109 297.138649 401.808109 Z M 360.952397 432.773778 C 241.41927 421.479309 153.698896 315.499544 164.993364 195.966416 C 176.287833 76.433289 282.361719 -11.287085 401.800726 0.00738359 C 404.436102 1.230951 406.412634 3.207483 407.636201 5.466377 L 407.918563 5.466377 L 445.096189 72.762586 C 422.413131 147.494321 347.399035 193.425161 270.502527 179.683557 C 193.606018 166.036074 139.110207 96.951574 143.533874 19.019739 C 147.957541 -58.912095 209.982998 -121.314035 288.008953 -126.114184 C 365.940787 -131.008454 435.213529 -76.795004 449.237495 0.00738359 C 420.813082 6.501703 392.482789 4.525171 366.787873 -4.228042 L 403.871378 -71.336011 L 403.965499 -71.336011 C 423.636699 41.326315 348.24612 148.717889 235.489673 168.389089 C 122.827348 188.154409 15.435774 112.669709 -4.235426 0.00738359 Z M 360.952397 432.773778 " transform="matrix(0.0415026,0,0,0.0415026,0,0.433287)"/>
</g>
</svg>
